<svg xmlns="http://www.w3.org/2000/svg" width="21.612" height="19.642" viewBox="0 0 21.612 19.642"><g transform="translate(0 -0.001)"><rect width="4.206" height="13.318" transform="translate(0.526 6.32)" fill="#fff"/><path d="M558.137,271.7c-2.4,0-3.914,1.285-4.206,2.22v-2.1H549.2c.058,1.11,0,13.318,0,13.318h4.731V277.95a3.24,3.24,0,0,1,.117-1.11,2.384,2.384,0,0,1,2.278-1.635c1.636,0,2.4,1.227,2.4,3.037v6.893h4.79v-7.418C563.452,273.569,561.116,271.7,558.137,271.7Z" transform="translate(-541.899 -265.496)" fill="#fff"/><path d="M539.27,261.1a2.338,2.338,0,0,0-2.57,2.336,2.309,2.309,0,0,0,2.512,2.278h.058a2.338,2.338,0,0,0,2.57-2.336,2.4,2.4,0,0,0-2.57-2.278Z" transform="translate(-536.7 -261.088)" fill="#fff"/></g></svg>