<svg xmlns="http://www.w3.org/2000/svg" width="21.905" height="18.342" viewBox="0 0 21.905 18.342"><path d="M685.645,262.15a8.126,8.126,0,0,1-2.862,1.11,4.5,4.5,0,0,0-3.271-1.46,4.563,4.563,0,0,0-4.5,4.614,6.427,6.427,0,0,0,.117,1.051,12.648,12.648,0,0,1-9.229-4.79,4.482,4.482,0,0,0-.584,2.336,4.865,4.865,0,0,0,1.986,3.855,4.152,4.152,0,0,1-2.044-.584v.058a4.527,4.527,0,0,0,3.622,4.5,3.766,3.766,0,0,1-1.168.175,3.591,3.591,0,0,1-.818-.058,4.582,4.582,0,0,0,4.206,3.213,8.817,8.817,0,0,1-5.549,1.986,6.345,6.345,0,0,1-1.051-.058,12.58,12.58,0,0,0,6.893,2.044c8.236,0,12.792-7.009,12.792-13.084v-.584a8.688,8.688,0,0,0,2.22-2.395,8.015,8.015,0,0,1-2.57.7,6.075,6.075,0,0,0,1.81-2.629Z" transform="translate(-664.5 -261.8)" fill="#fff"/></svg>