<svg xmlns="http://www.w3.org/2000/svg" width="21.062" height="21.128" viewBox="0 0 21.062 21.128"><g transform="translate(-2097.1 -168.047)"><path d="M104.1,125.128l1.519-5.414a10.282,10.282,0,0,1-1.387-5.216,10.458,10.458,0,0,1,17.893-7.395,10.386,10.386,0,0,1,3.037,7.395,10.525,10.525,0,0,1-10.5,10.5h0a10.865,10.865,0,0,1-5.018-1.255Zm5.81-3.367.33.2a8.545,8.545,0,0,0,4.424,1.188h0a8.7,8.7,0,1,0-7.395-4.094l.2.33-.858,3.235Z" transform="translate(1993 64.047)" fill="#fff"/><path d="M114.595,112.974c-.192-.544-.385-.476-.577-.476H113.5a.958.958,0,0,0-.706.34,3.063,3.063,0,0,0-.9,2.242,5.374,5.374,0,0,0,1.027,2.786,11.334,11.334,0,0,0,4.363,4.077,6.538,6.538,0,0,0,1.476.544,3.355,3.355,0,0,0,1.6.136,2.747,2.747,0,0,0,1.732-1.291,2.515,2.515,0,0,0,.128-1.291c-.064-.136-.257-.2-.513-.34s-1.476-.815-1.732-.883-.385-.136-.577.136-.642.883-.834,1.087c-.128.2-.321.2-.577.068a6.329,6.329,0,0,1-2.053-1.359,7.715,7.715,0,0,1-1.412-1.834.42.42,0,0,1,.128-.544c.128-.136.257-.34.385-.476a1.112,1.112,0,0,0,.257-.476.605.605,0,0,0,0-.476C115.3,114.877,114.787,113.518,114.595,112.974Z" transform="translate(1990.5 61.018)" fill="#fff" fill-rule="evenodd"/></g></svg>