<svg xmlns="http://www.w3.org/2000/svg" width="27.155" height="27.149" viewBox="0 0 27.155 27.149"><path d="M13.575,8.852a6.961,6.961,0,1,0,6.961,6.961A6.95,6.95,0,0,0,13.575,8.852Zm0,11.486A4.525,4.525,0,1,1,18.1,15.812a4.534,4.534,0,0,1-4.525,4.525ZM22.444,8.567a1.624,1.624,0,1,1-1.624-1.624A1.62,1.62,0,0,1,22.444,8.567Zm4.61,1.648a8.035,8.035,0,0,0-2.193-5.689,8.087,8.087,0,0,0-5.689-2.193c-2.241-.127-8.96-.127-11.2,0A8.076,8.076,0,0,0,2.283,4.52,8.061,8.061,0,0,0,.09,10.209c-.127,2.241-.127,8.96,0,11.2A8.035,8.035,0,0,0,2.283,27.1a8.1,8.1,0,0,0,5.689,2.193c2.241.127,8.96.127,11.2,0A8.035,8.035,0,0,0,24.862,27.1a8.087,8.087,0,0,0,2.193-5.689c.127-2.241.127-8.954,0-11.2Zm-2.9,13.6A4.582,4.582,0,0,1,21.578,26.4c-1.787.709-6.028.545-8,.545s-6.222.158-8-.545a4.582,4.582,0,0,1-2.581-2.581c-.709-1.787-.545-6.028-.545-8s-.158-6.222.545-8A4.582,4.582,0,0,1,5.573,5.229c1.787-.709,6.028-.545,8-.545s6.222-.158,8,.545A4.582,4.582,0,0,1,24.159,7.81c.709,1.787.545,6.028.545,8S24.868,22.034,24.159,23.815Z" transform="translate(0.005 -2.238)" fill="#293774"/></svg>