<svg xmlns="http://www.w3.org/2000/svg" width="23.414" height="19.016" viewBox="0 0 23.414 19.016"><path d="M21.007,8.12c.015.208.015.416.015.624A13.56,13.56,0,0,1,7.369,22.4,13.561,13.561,0,0,1,0,20.243a9.927,9.927,0,0,0,1.159.059,9.61,9.61,0,0,0,5.958-2.05A4.807,4.807,0,0,1,2.63,14.924,6.051,6.051,0,0,0,3.536,15,5.075,5.075,0,0,0,4.8,14.835a4.8,4.8,0,0,1-3.848-4.71v-.059a4.833,4.833,0,0,0,2.169.609A4.806,4.806,0,0,1,1.634,4.257a13.64,13.64,0,0,0,9.895,5.022,5.417,5.417,0,0,1-.119-1.1,4.8,4.8,0,0,1,8.3-3.283A9.448,9.448,0,0,0,22.76,3.737a4.786,4.786,0,0,1-2.11,2.644,9.62,9.62,0,0,0,2.763-.743A10.315,10.315,0,0,1,21.007,8.12Z" transform="translate(0 -3.381)" fill="#293774"/></svg>