<svg xmlns="http://www.w3.org/2000/svg" xmlns:xlink="http://www.w3.org/1999/xlink" width="42.38" height="65.368" viewBox="0 0 42.38 65.368"><defs><clipPath id="a"><rect width="42.38" height="65.368" fill="none"/></clipPath><clipPath id="b"><path d="M21.687,25.714c-4.607,10.028-4.461,19.828,4.139,26.172h0q.238.183.495.354l.066.047c.049.034.1.065.153.095A13.8,13.8,0,0,0,32.16,54.3c-1.322-1.278-.907-3.08-1.907-3.5-.151-.063-.35-.13-.582-.2h0a15.239,15.239,0,0,1-6.1-8.926,16.4,16.4,0,0,1,.538-9.3C25.08,29.413,25.869,27.1,28,25.219c1.759-1.546.956-.551,1.813-2.639.214-.521.477-1.054.737-1.551,3.932-7.514,5.8-15.688-5.078-20.738A8.709,8.709,0,0,0,24.02,0c4.673,8.466,1.448,17.482-2.333,25.711" transform="translate(-18.672 -0.003)" fill="none"/></clipPath></defs><g transform="translate(-18.688 -71.22)"><g transform="translate(18.688 71.22)"><g transform="translate(0 0)"><g transform="translate(0 0)" clip-path="url(#a)"><path d="M29.671,50.6h0a15.239,15.239,0,0,1-6.1-8.926,16.4,16.4,0,0,1,.538-9.3C25.08,29.413,25.869,27.1,28,25.219c1.759-1.546.956-.551,1.813-2.639.214-.521.477-1.054.737-1.551,3.932-7.514,5.8-15.688-5.078-20.738A8.714,8.714,0,0,0,24.02,0c4.673,8.466,1.448,17.482-2.333,25.711-4.607,10.028-4.461,19.828,4.139,26.172h0q.238.183.495.354l.066.047c.049.034.1.065.153.095A13.8,13.8,0,0,0,32.16,54.3c-1.322-1.278-.907-3.08-1.907-3.5-.151-.063-.35-.13-.582-.2" transform="translate(-17.623 -0.003)" fill="#ef6700" fill-rule="evenodd"/></g></g><g transform="translate(1.049 0)"><g transform="translate(0 0)" clip-path="url(#b)"><path d="M19.021,361.671l-.125,4.05a11.916,11.916,0,0,0-2.563-1.2,8.327,8.327,0,0,0-2.541-.394c-2.72,0,.08,1.547-1.519,3.894s-4.737,5.139-4.737,9.125c0,4.034-.7,6.079.893,8.385s2.643,4.585,5.4,4.585a8.812,8.812,0,0,0,2.552-.37,10.915,10.915,0,0,0,2.454-1.077l.093,4.195a11.443,11.443,0,0,1-2.514.86c-.893.2-1.839,1.606-2.84,1.606-3.705,0-6.176-3.179-8.77-5.769A18.52,18.52,0,0,1,0,377.211a19.012,19.012,0,0,1,4.865-12.229c2.836-3.358,5.381-4.106,8.8-4.613a7.393,7.393,0,0,1,2.829.321,9.5,9.5,0,0,1,2.524.98" transform="translate(-1.049 -340.075)" fill="#00236c"/></g></g><g transform="translate(0 0)"><g transform="translate(0 0)" clip-path="url(#a)"><path d="M130.369,33.965a27.73,27.73,0,0,1-1.482,11.151,20.117,20.117,0,0,1-2.742,5.427c-.412.569-.463,1.272-.956,1.817l-.072.674c-.092.128-.329.677-.421.823s.3.011.212.164c.507-.2.836-1.737,1.23-2.116.155-.148.346-.292.484-.437.16-.17.306-.295.465-.456a19.06,19.06,0,0,0,2.077-2.5,22.509,22.509,0,0,0,3.326-7.7c1.475-6.278.821-13.6-.963-19.8C129.077,12.491,123.5,4.1,115.29.285A4.959,4.959,0,0,0,113.833,0c10.75,7.634,15.64,25.05,16.536,33.969" transform="translate(-107.435 0.004)" fill="#00236c" fill-rule="evenodd"/><path d="M305.968,855.538c-5.785-1.171-9.367-.836-15.091.186a42.507,42.507,0,0,0-7.251,1.811c-1,.419-.944,2.235-2.265,3.513,5.734-1.239,14.778-1.45,23.242-.57Z" transform="translate(-265.548 -806.755)" fill="#00236c" fill-rule="evenodd"/><path d="M495.218,532.98a9.155,9.155,0,0,1-.312,2.433,6.664,6.664,0,0,1-.886,1.984,4.406,4.406,0,0,1-1.385,1.335,3.5,3.5,0,0,1-1.835.487,3.562,3.562,0,0,1-1.847-.487,4.433,4.433,0,0,1-1.41-1.348,6.641,6.641,0,0,1-.9-2,9.789,9.789,0,0,1,0-4.9,6.477,6.477,0,0,1,.886-1.984,4.456,4.456,0,0,1,1.385-1.323,3.683,3.683,0,0,1,3.681.013,4.617,4.617,0,0,1,1.41,1.348,6.46,6.46,0,0,1,.9,2,9.3,9.3,0,0,1,.312,2.446m3.17-.05a11.29,11.29,0,0,0-.536-3.519,8.792,8.792,0,0,0-1.535-2.87,7.244,7.244,0,0,0-2.4-1.922,7.283,7.283,0,0,0-6.252.013,7.348,7.348,0,0,0-2.409,1.934,8.958,8.958,0,0,0-1.547,2.883,11.172,11.172,0,0,0-.549,3.532,11.3,11.3,0,0,0,.537,3.519,8.792,8.792,0,0,0,1.535,2.87,7.245,7.245,0,0,0,2.4,1.922,7.282,7.282,0,0,0,6.252-.013,7.347,7.347,0,0,0,2.409-1.934,8.955,8.955,0,0,0,1.547-2.883,11.176,11.176,0,0,0,.549-3.532" transform="translate(-456.008 -494.474)" fill="#00236c"/><path d="M111.817,1020.169c.642,0,1.094-.354,1.094-.933v-.012a.807.807,0,0,0-.718-.793l.68-.633v-.555h-1.827v.609h.932l-.628.608.048.411h.081c.447,0,.666.131.666.349v.008c0,.193-.167.321-.4.321a.994.994,0,0,1-.542-.185l-.314.538a1.613,1.613,0,0,0,.928.267m-3.016-.049h1.936v-.617h-1.028l.538-.571c.376-.395.5-.625.5-.929v-.012c0-.489-.4-.8-.966-.8a1.561,1.561,0,0,0-1.037.415l.381.5a.9.9,0,0,1,.547-.279.274.274,0,0,1,.3.259c0,.152-.09.271-.319.526l-.861.95Zm-1.341-.563c-.228,0-.376-.222-.376-.822v-.115c0-.6.143-.814.371-.814s.371.222.371.818v.115c0,.6-.143.818-.366.818m0,.617c.718,0,1.156-.526,1.156-1.435v-.123c0-.9-.433-1.427-1.151-1.427s-1.161.526-1.161,1.435v.119c0,.908.428,1.431,1.156,1.431m-3.34-.054h1.936v-.617h-1.028l.538-.571c.376-.395.5-.625.5-.929v-.012c0-.489-.4-.8-.966-.8a1.561,1.561,0,0,0-1.037.415l.381.5a.9.9,0,0,1,.547-.279.274.274,0,0,1,.3.259c0,.152-.09.271-.319.526l-.861.95Zm-2.531-1.077.233-.88.233.88Zm-1.075,1.077h.78l.143-.522h.771l.143.522h.8l-.9-2.89H101.4Zm-.989,0h.78v-2.878h-.78Zm-1.765-2.265c.385,0,.642.214.642.789v.074c0,.567-.257.789-.642.789h-.109v-1.653Zm-.894,2.265h.875a1.3,1.3,0,0,0,1.465-1.394v-.1a1.294,1.294,0,0,0-1.46-1.385h-.88Zm-2.7,0h.761v-1.43l.852,1.43h.7v-2.878h-.761v1.365l-.813-1.365h-.742Zm-1.175,0h.78v-2.878h-.78Zm-2.317-.563c-.228,0-.376-.222-.376-.822v-.115c0-.6.143-.814.371-.814s.371.222.371.818v.115c0,.6-.143.818-.366.818m0,.617c.718,0,1.156-.526,1.156-1.435v-.123c0-.9-.433-1.427-1.151-1.427s-1.161.526-1.161,1.435v.119c0,.908.428,1.431,1.156,1.431m-3.34-.054h1.936v-.617H88.235l.538-.571c.376-.395.5-.625.5-.929v-.012c0-.489-.4-.8-.966-.8a1.561,1.561,0,0,0-1.037.415l.38.5a.9.9,0,0,1,.547-.279.274.274,0,0,1,.3.259c0,.152-.09.271-.319.526l-.861.95Zm-2.788,0H86.29v-.625h-.966v-2.253h-.785Zm-1.175,0h.78v-2.878h-.78Zm-1.865.012h.79l.866-2.89h-.809L81.9,1019l-.447-1.755h-.828Zm-1.86-.012h.78v-2.878h-.78Zm-1.132.041a1.365,1.365,0,0,0,.9-.325l-.39-.526a.653.653,0,0,1-.447.2c-.271,0-.538-.222-.538-.822v-.025c0-.563.243-.818.538-.818a.629.629,0,0,1,.423.189l.4-.543a1.335,1.335,0,0,0-2.165,1.143v.1a1.255,1.255,0,0,0,1.275,1.426" transform="translate(-72.891 -960.02)" fill="#00236c"/><path d="M140.916,1106.121h.52v-.377h-.52v-.53h-.446v.53h-.245v.377h.245v1.02a.765.765,0,0,0,.041.269.425.425,0,0,0,.116.174.458.458,0,0,0,.179.095.809.809,0,0,0,.224.029.847.847,0,0,0,.22-.026.763.763,0,0,0,.179-.073v-.362a.61.61,0,0,1-.274.066.252.252,0,0,1-.176-.057.241.241,0,0,1-.062-.185Zm-2.36.467a.488.488,0,0,1,.119-.352.411.411,0,0,1,.312-.126.381.381,0,0,1,.3.122.512.512,0,0,1,.107.348v1.1h.446v-1.229a.787.787,0,0,0-.179-.542.643.643,0,0,0-.507-.2.646.646,0,0,0-.366.1.659.659,0,0,0-.131.109,1.086,1.086,0,0,0-.1.131v-1.042h-.446v2.671h.446Zm-1.434.027a.5.5,0,0,1-.046.217.542.542,0,0,1-.123.167.527.527,0,0,1-.181.109.613.613,0,0,1-.218.039.584.584,0,0,1-.214-.039.5.5,0,0,1-.174-.109.54.54,0,0,1-.117-.169.532.532,0,0,1-.044-.219.554.554,0,0,1,.042-.218.487.487,0,0,1,.117-.167.536.536,0,0,1,.174-.107.59.59,0,0,1,.216-.038.624.624,0,0,1,.218.038.545.545,0,0,1,.181.107.509.509,0,0,1,.123.169.523.523,0,0,1,.046.22m.435.666v-1.536h-.443v.292a1.1,1.1,0,0,0-.273-.234.757.757,0,0,0-.4-.1.888.888,0,0,0-.327.062.858.858,0,0,0-.282.18.868.868,0,0,0-.2.285,1.045,1.045,0,0,0,0,.768.874.874,0,0,0,.2.286.839.839,0,0,0,.28.177.915.915,0,0,0,.329.06.745.745,0,0,0,.4-.1,1.032,1.032,0,0,0,.282-.259v.151a.587.587,0,0,1-.157.445.629.629,0,0,1-.454.151,1.18,1.18,0,0,1-.366-.055,1.471,1.471,0,0,1-.322-.15l-.165.333a1.63,1.63,0,0,0,.863.23,1.127,1.127,0,0,0,.768-.238.949.949,0,0,0,.271-.75m-2.473-1.536h-.446v1.932h.446Zm.015-.717h-.479v.421h.479Zm-4.628,1.547a.635.635,0,0,1,.163-.367.446.446,0,0,1,.338-.141.454.454,0,0,1,.2.04.467.467,0,0,1,.148.108.508.508,0,0,1,.1.161.754.754,0,0,1,.048.2Zm0,.293h1.42c0-.022,0-.043.005-.062s0-.039,0-.058a1.344,1.344,0,0,0-.059-.4.979.979,0,0,0-.174-.333.83.83,0,0,0-.289-.227.917.917,0,0,0-.4-.084.882.882,0,0,0-.38.08.946.946,0,0,0-.3.218.986.986,0,0,0-.2.32,1.092,1.092,0,0,0-.07.391,1.062,1.062,0,0,0,.077.412.935.935,0,0,0,.525.521,1.034,1.034,0,0,0,.39.073.992.992,0,0,0,.459-.1,1.07,1.07,0,0,0,.331-.263l-.26-.23a.928.928,0,0,1-.238.172.652.652,0,0,1-.285.058.552.552,0,0,1-.366-.126.584.584,0,0,1-.19-.364m-2.159-.279a.488.488,0,0,1,.12-.352.411.411,0,0,1,.312-.126.381.381,0,0,1,.3.122.512.512,0,0,1,.107.348v1.1h.446v-1.229a.787.787,0,0,0-.179-.542.644.644,0,0,0-.507-.2.646.646,0,0,0-.366.1.657.657,0,0,0-.131.109,1.091,1.091,0,0,0-.1.131v-1.042h-.446v2.671h.446Zm-4.694-.014a.636.636,0,0,1,.163-.367.446.446,0,0,1,.338-.141.454.454,0,0,1,.2.04.467.467,0,0,1,.148.108.508.508,0,0,1,.1.161.752.752,0,0,1,.048.2Zm0,.293h1.42c0-.022,0-.043.005-.062s0-.039,0-.058a1.346,1.346,0,0,0-.058-.4.981.981,0,0,0-.174-.333.829.829,0,0,0-.289-.227.917.917,0,0,0-.4-.084.882.882,0,0,0-.38.08.946.946,0,0,0-.3.218.985.985,0,0,0-.2.32,1.091,1.091,0,0,0-.07.391,1.063,1.063,0,0,0,.077.412.935.935,0,0,0,.525.521,1.034,1.034,0,0,0,.39.073.992.992,0,0,0,.459-.1,1.071,1.071,0,0,0,.331-.263l-.26-.23a.93.93,0,0,1-.238.172.652.652,0,0,1-.285.058.552.552,0,0,1-.366-.126.584.584,0,0,1-.19-.364m-1.335.073a1.071,1.071,0,0,1,.048-.335.649.649,0,0,1,.135-.24.563.563,0,0,1,.209-.142.725.725,0,0,1,.267-.048h.026v-.468a.624.624,0,0,0-.424.121.851.851,0,0,0-.26.351v-.435h-.446v1.932h.446Zm-1.734-.282h-.882l.439-1.024Zm-.227-1.562h-.417l-1.127,2.579h.461l.263-.618h1.211l.26.618h.476Zm-2.378,1.735a.49.49,0,0,1-.119.352.412.412,0,0,1-.312.126.38.38,0,0,1-.3-.123.511.511,0,0,1-.107-.348v-1.1h-.446v1.229a.786.786,0,0,0,.179.541.643.643,0,0,0,.507.2.612.612,0,0,0,.365-.1.949.949,0,0,0,.237-.241v.3h.446v-1.932h-.446Zm-2.162-.115a.7.7,0,0,1-.04.24.577.577,0,0,1-.116.2.566.566,0,0,1-.184.134.576.576,0,0,1-.242.049.558.558,0,0,1-.235-.049.587.587,0,0,1-.185-.134.6.6,0,0,1-.121-.2.676.676,0,0,1-.044-.243.7.7,0,0,1,.04-.24.574.574,0,0,1,.116-.2.585.585,0,0,1,.66-.133.573.573,0,0,1,.185.135.624.624,0,0,1,.121.2.663.663,0,0,1,.044.241m.446-.007a.99.99,0,0,0-.616-.928,1.061,1.061,0,0,0-.412-.078,1.031,1.031,0,0,0-.737.3,1.013,1.013,0,0,0-.216.322,1,1,0,0,0,.538,1.317,1.1,1.1,0,0,0,.821,0,1,1,0,0,0,.543-.538.979.979,0,0,0,.079-.391m-2.912-.055,1.017-1.54h-.516l-.724,1.134-.717-1.134h-.53l1.017,1.551v1.01h.454Zm19.075,1.021h1.793v-.406h-1.346v-2.155H132.4Zm-5.766-2.144h.812v-.417h-2.078v.417h.812v2.144h.454Zm-15.772.537-.11.641h-.6l.11-.641Zm.779,0v-.377h-.326l.1-.578h-.391l-.1.578h-.6l.1-.578h-.391l-.1.578H109.5v.377h.366l-.106.641h-.4v.377h.329l-.1.589h.391l.1-.589h.6l-.1.589h.391l.1-.589h.432v-.377h-.366l.106-.641Z" transform="translate(-103.222 -1042.901)" fill="#ef6700"/></g></g></g></g></svg>